<svg width="189" height="44" viewBox="0 0 189 44" fill="none" xmlns="http://www.w3.org/2000/svg">
<path d="M188.315 39.8429C188.315 42.1362 186.449 44 184.157 44C181.865 44 180 42.1356 180 39.8429C180 37.8527 182.905 33.2642 183.488 32.3644C183.635 32.1372 183.887 32 184.158 32C184.429 32 184.681 32.1372 184.828 32.3644C185.41 33.2642 188.315 37.8527 188.315 39.8429Z" fill="#FFDF2D"/>
<rect x="1.5" y="1.5" width="139" height="37" rx="10.5" stroke="#FFDF2D" stroke-width="3"/>
<path d="M1 19H140V26C140 32.6274 134.627 38 128 38H13C6.37259 38 1 32.6274 1 26V19Z" fill="#FFDF2D"/>
<mask id="path-4-inside-1_1109_45" fill="white">
<path d="M139 10H179C181.761 10 184 12.2386 184 15V25C184 27.7614 181.761 30 179 30H139V10Z"/>
</mask>
<path d="M139 7H179C183.418 7 187 10.5817 187 15H181C181 13.8954 180.105 13 179 13H139V7ZM187 25C187 29.4183 183.418 33 179 33H139V27H179C180.105 27 181 26.1046 181 25H187ZM139 30V10V30ZM179 7C183.418 7 187 10.5817 187 15V25C187 29.4183 183.418 33 179 33V27C180.105 27 181 26.1046 181 25V15C181 13.8954 180.105 13 179 13V7Z" fill="#FFDF2D" mask="url(#path-4-inside-1_1109_45)"/>
<path d="M141 19H182V23C182 25.7614 179.761 28 177 28H141V19Z" fill="#FFDF2D"/>
</svg>
