<svg width="100" height="100" viewBox="0 0 100 100" fill="none" xmlns="http://www.w3.org/2000/svg">
<path d="M49.9999 99.9998C77.6141 99.9998 99.9998 77.6141 99.9998 49.9999C99.9998 22.3857 77.6141 0 49.9999 0C22.3857 0 0 22.3857 0 49.9999C0 77.6141 22.3857 99.9998 49.9999 99.9998Z" fill="#2C2C2C"/>
<path d="M66.0304 53.5283V50.3354H63.8963V53.5283C63.8963 61.1684 57.5722 67.3629 49.9307 67.3629H49.9244C42.2834 67.3629 36.0898 61.1675 36.0898 53.5283V50.3354H33.9652V53.5283C33.9652 61.5712 39.9285 68.1579 47.6648 69.268V75.1855H39.164C37.3292 75.1855 35.8456 76.6722 35.8456 78.5053C35.8456 80.3385 37.3292 81.8244 39.164 81.8244H60.8275C62.6607 81.8244 64.1459 80.3385 64.1459 78.5053C64.1459 76.6722 62.6609 75.1855 60.8275 75.1855H51.9242V69.295C59.7884 68.3027 66.0304 61.6644 66.0304 53.5283Z" fill="#FFDF2D"/>
<path d="M49.9273 18.17C43.4589 18.17 38.2173 23.4149 38.2173 29.8792V48.2048H61.7716V29.8792C61.7716 23.4146 56.3959 18.17 49.9273 18.17ZM54.2697 22.4776C54.8586 22.4776 55.3412 22.9545 55.3412 23.5459C55.3412 24.1348 54.8588 24.6148 54.2697 24.6148C53.6823 24.6148 53.2008 24.1348 53.2008 23.5459C53.2008 22.9551 53.6814 22.4776 54.2697 22.4776ZM49.9953 22.4776C50.5859 22.4776 51.0627 22.9545 51.0627 23.5459C51.0627 24.1348 50.5859 24.6148 49.9953 24.6148C49.4 24.6148 48.9278 24.1348 48.9278 23.5459C48.9278 22.9551 49.4 22.4776 49.9953 22.4776ZM45.7208 22.4776C46.3097 22.4776 46.7898 22.9545 46.7898 23.5459C46.7898 24.1348 46.3106 24.6148 45.7208 24.6148C45.1311 24.6148 44.6511 24.1348 44.6511 23.5459C44.6502 22.9551 45.1311 22.4776 45.7208 22.4776ZM41.4441 45.9924C40.852 45.9924 40.3743 45.5156 40.3743 44.9235C40.3743 44.3352 40.852 43.8546 41.4441 43.8546C42.0362 43.8546 42.513 44.3354 42.513 44.9235C42.513 45.5156 42.0362 45.9924 41.4441 45.9924ZM41.4441 41.7157C40.852 41.7157 40.3743 41.2388 40.3743 40.6482C40.3743 40.0568 40.852 39.5799 41.4441 39.5799C42.0362 39.5799 42.513 40.0568 42.513 40.6482C42.513 41.2388 42.0362 41.7157 41.4441 41.7157ZM41.4441 37.4404C40.852 37.4404 40.3743 36.9619 40.3743 36.373C40.3743 35.7801 40.852 35.304 41.4441 35.304C42.0362 35.304 42.513 35.7809 42.513 36.373C42.513 36.9621 42.0362 37.4404 41.4441 37.4404ZM41.4441 33.166C40.852 33.166 40.3743 32.6891 40.3743 32.0962C40.3743 31.5065 40.852 31.0273 41.4441 31.0273C42.0362 31.0273 42.513 31.5065 42.513 32.0962C42.513 32.6891 42.0362 33.166 41.4441 33.166ZM43.5828 28.8892C42.989 28.8892 42.513 28.4124 42.513 27.8203C42.513 27.2314 42.9899 26.752 43.5828 26.752C44.1702 26.752 44.6502 27.2306 44.6502 27.8203C44.6502 28.413 44.1711 28.8892 43.5828 28.8892ZM45.7208 45.9924C45.1319 45.9924 44.6511 45.5156 44.6511 44.9235C44.6511 44.3352 45.1319 43.8546 45.7208 43.8546C46.3097 43.8546 46.7898 44.3354 46.7898 44.9235C46.7891 45.5156 46.3097 45.9924 45.7208 45.9924ZM45.7208 41.7157C45.1319 41.7157 44.6511 41.2388 44.6511 40.6482C44.6511 40.0568 45.1319 39.5799 45.7208 39.5799C46.3097 39.5799 46.7898 40.0568 46.7898 40.6482C46.7891 41.2388 46.3097 41.7157 45.7208 41.7157ZM45.7208 37.4404C45.1319 37.4404 44.6511 36.9619 44.6511 36.373C44.6511 35.7801 45.1319 35.304 45.7208 35.304C46.3097 35.304 46.7898 35.7809 46.7898 36.373C46.7891 36.9621 46.3097 37.4404 45.7208 37.4404ZM45.7208 33.166C45.1319 33.166 44.6511 32.6891 44.6511 32.0962C44.6511 31.5065 45.1319 31.0273 45.7208 31.0273C46.3097 31.0273 46.7898 31.5065 46.7898 32.0962C46.7891 32.6891 46.3097 33.166 45.7208 33.166ZM47.8564 28.8892C47.2675 28.8892 46.7889 28.4124 46.7889 27.8203C46.7889 27.2314 47.2666 26.752 47.8564 26.752C48.447 26.752 48.9278 27.2306 48.9278 27.8203C48.9278 28.413 48.447 28.8892 47.8564 28.8892ZM49.9953 45.9924C49.4 45.9924 48.9278 45.5156 48.9278 44.9235C48.9278 44.3352 49.4 43.8546 49.9953 43.8546C50.5859 43.8546 51.0627 44.3354 51.0627 44.9235C51.0619 45.5156 50.5859 45.9924 49.9953 45.9924ZM49.9953 41.7157C49.4 41.7157 48.9278 41.2388 48.9278 40.6482C48.9278 40.0568 49.4 39.5799 49.9953 39.5799C50.5859 39.5799 51.0627 40.0568 51.0627 40.6482C51.0619 41.2388 50.5859 41.7157 49.9953 41.7157ZM49.9953 37.4404C49.4 37.4404 48.9278 36.9619 48.9278 36.373C48.9278 35.7801 49.4 35.304 49.9953 35.304C50.5859 35.304 51.0627 35.7809 51.0627 36.373C51.0619 36.9621 50.5859 37.4404 49.9953 37.4404ZM49.9953 33.166C49.4 33.166 48.9278 32.6891 48.9278 32.0962C48.9278 31.5065 49.4 31.0273 49.9953 31.0273C50.5859 31.0273 51.0627 31.5065 51.0627 32.0962C51.0619 32.6891 50.5859 33.166 49.9953 33.166ZM52.134 28.8892C51.5434 28.8892 51.0625 28.4124 51.0625 27.8203C51.0625 27.2314 51.5434 26.752 52.134 26.752C52.7245 26.752 53.2014 27.2306 53.2014 27.8203C53.2008 28.413 52.7245 28.8892 52.134 28.8892ZM54.2697 45.9924C53.6823 45.9924 53.2008 45.5156 53.2008 44.9235C53.2008 44.3352 53.6816 43.8546 54.2697 43.8546C54.8586 43.8546 55.3412 44.3354 55.3412 44.9235C55.3412 45.5156 54.8586 45.9924 54.2697 45.9924ZM54.2697 41.7157C53.6823 41.7157 53.2008 41.2388 53.2008 40.6482C53.2008 40.0568 53.6816 39.5799 54.2697 39.5799C54.8586 39.5799 55.3412 40.0568 55.3412 40.6482C55.3412 41.2388 54.8586 41.7157 54.2697 41.7157ZM54.2697 37.4404C53.6823 37.4404 53.2008 36.9619 53.2008 36.373C53.2008 35.7801 53.6816 35.304 54.2697 35.304C54.8586 35.304 55.3412 35.7809 55.3412 36.373C55.3412 36.9621 54.8586 37.4404 54.2697 37.4404ZM54.2697 33.166C53.6823 33.166 53.2008 32.6891 53.2008 32.0962C53.2008 31.5065 53.6816 31.0273 54.2697 31.0273C54.8586 31.0273 55.3412 31.5065 55.3412 32.0962C55.3412 32.6891 54.8586 33.166 54.2697 33.166ZM56.4086 28.8892C55.818 28.8892 55.3412 28.4124 55.3412 27.8203C55.3412 27.2314 55.818 26.752 56.4086 26.752C56.9992 26.752 57.4784 27.2306 57.4784 27.8203C57.4784 28.413 56.999 28.8892 56.4086 28.8892ZM58.5473 45.9924C57.9584 45.9924 57.4784 45.5156 57.4784 44.9235C57.4784 44.3352 57.9575 43.8546 58.5473 43.8546C59.1379 43.8546 59.6162 44.3354 59.6162 44.9235C59.6156 45.5156 59.1379 45.9924 58.5473 45.9924ZM58.5473 41.7157C57.9584 41.7157 57.4784 41.2388 57.4784 40.6482C57.4784 40.0568 57.9575 39.5799 58.5473 39.5799C59.1379 39.5799 59.6162 40.0568 59.6162 40.6482C59.6156 41.2388 59.1379 41.7157 58.5473 41.7157ZM58.5473 37.4404C57.9584 37.4404 57.4784 36.9619 57.4784 36.373C57.4784 35.7801 57.9575 35.304 58.5473 35.304C59.1379 35.304 59.6162 35.7809 59.6162 36.373C59.6156 36.9621 59.1379 37.4404 58.5473 37.4404ZM58.5473 33.166C57.9584 33.166 57.4784 32.6891 57.4784 32.0962C57.4784 31.5065 57.9575 31.0273 58.5473 31.0273C59.1379 31.0273 59.6162 31.5065 59.6162 32.0962C59.6156 32.6891 59.1379 33.166 58.5473 33.166Z" fill="#FFDF2D"/>
<path d="M49.9273 65.1027C56.3957 65.1027 61.7716 59.8579 61.7716 53.3935V50.3357H38.2173V53.3935C38.2173 59.8587 43.4581 65.1027 49.9273 65.1027Z" fill="#FFDF2D"/>
</svg>
