<svg width="83" height="52" viewBox="0 0 83 52" fill="none" xmlns="http://www.w3.org/2000/svg">
<path d="M4 22.5C2.067 22.5 0.5 24.067 0.5 26C0.5 27.933 2.067 29.5 4 29.5L4 22.5ZM81.4749 28.4749C82.8417 27.108 82.8417 24.892 81.4749 23.5251L59.201 1.25127C57.8342 -0.115568 55.6181 -0.115568 54.2513 1.25127C52.8844 2.6181 52.8844 4.83418 54.2513 6.20101L74.0503 26L54.2513 45.799C52.8844 47.1658 52.8844 49.3819 54.2513 50.7487C55.6181 52.1156 57.8342 52.1156 59.201 50.7487L81.4749 28.4749ZM4 29.5L79 29.5L79 22.5L4 22.5L4 29.5Z" fill="black"/>
</svg>
