<?xml version="1.0" standalone="no"?>
<!DOCTYPE svg PUBLIC "-//W3C//DTD SVG 20010904//EN"
 "http://www.w3.org/TR/2001/REC-SVG-20010904/DTD/svg10.dtd">
<svg version="1.0" xmlns="http://www.w3.org/2000/svg"
 width="965.000000pt" height="965.000000pt" viewBox="0 0 965.000000 965.000000"
 preserveAspectRatio="xMidYMid meet">
<metadata>
Created by potrace 1.14, written by Peter Selinger 2001-2017
</metadata>
<g transform="translate(0.000000,965.000000) scale(0.100000,-0.100000)"
fill="#000000" stroke="none">
<path d="M4810 9319 c-74 -4 -171 -13 -215 -18 -44 -6 -120 -15 -170 -21 -49
-6 -115 -15 -145 -20 -30 -5 -113 -19 -185 -30 -150 -24 -176 -29 -345 -69
-69 -16 -168 -39 -220 -51 -84 -19 -223 -52 -405 -95 -92 -23 -182 -50 -275
-85 -47 -18 -94 -34 -105 -37 -22 -6 -358 -163 -475 -222 -226 -114 -377 -220
-707 -494 -52 -43 -111 -85 -131 -95 -45 -20 -140 -92 -247 -187 -44 -39 -116
-97 -160 -129 -44 -31 -115 -91 -157 -133 -64 -63 -88 -97 -147 -207 -94 -176
-151 -379 -151 -537 0 -85 48 -245 82 -275 81 -72 219 -121 315 -111 29 3 98
20 154 37 124 39 202 39 289 -2 30 -14 69 -28 87 -32 39 -9 117 -90 143 -149
10 -23 30 -91 45 -152 14 -60 30 -126 35 -145 5 -19 12 -53 15 -75 16 -103 40
-189 103 -355 22 -58 65 -171 95 -252 30 -80 60 -155 67 -165 11 -17 11 -17 4
2 -4 11 -10 65 -13 120 -4 55 -13 110 -20 123 -15 28 -7 88 20 151 10 24 19
59 19 77 0 61 25 74 140 74 68 0 110 5 129 14 45 24 106 18 151 -15 39 -28 47
-44 52 -104 3 -26 8 -30 46 -37 35 -6 59 -22 141 -99 65 -60 105 -106 117
-133 10 -22 26 -60 36 -83 10 -24 26 -71 34 -105 16 -60 23 -77 74 -178 120
-236 165 -319 185 -340 31 -34 40 -55 60 -132 16 -65 16 -68 -6 -140 -12 -40
-21 -88 -20 -105 1 -18 -7 -50 -18 -72 -24 -46 -52 -54 -173 -53 -69 1 -86 5
-160 41 -119 58 -159 39 -108 -49 20 -34 72 -141 109 -225 37 -83 43 -116 38
-209 -4 -79 -11 -107 -51 -206 -37 -93 -57 -129 -104 -182 -31 -36 -81 -93
-110 -126 -35 -41 -83 -80 -145 -118 -50 -31 -110 -69 -132 -84 -143 -97 -253
-164 -345 -211 -80 -41 -121 -69 -175 -122 -38 -38 -96 -93 -129 -121 -62 -55
-173 -187 -251 -301 -27 -39 -74 -97 -105 -130 -31 -33 -87 -98 -125 -145 -37
-47 -113 -133 -170 -191 -93 -96 -105 -112 -135 -190 -51 -130 -110 -310 -110
-334 0 -12 -7 -62 -16 -111 -22 -125 -31 -187 -55 -362 -11 -85 -29 -197 -40
-250 -40 -188 -42 -258 -13 -499 l6 -53 4509 0 4509 0 0 269 0 268 -48 74
c-27 41 -81 116 -120 168 -39 52 -96 142 -126 200 -58 112 -88 146 -226 257
-197 159 -323 244 -472 319 -195 99 -344 189 -433 260 -38 31 -95 71 -125 89
-62 37 -258 116 -287 116 -39 0 -123 31 -153 57 -17 14 -51 55 -75 92 -24 36
-70 91 -102 123 -61 59 -104 84 -249 144 -111 45 -231 117 -309 184 -33 29
-85 70 -115 92 -30 23 -98 82 -150 132 -53 50 -113 107 -135 126 -22 19 -44
43 -50 53 -6 11 -32 21 -69 28 -32 6 -69 14 -81 19 -29 11 -77 95 -105 183
l-22 68 23 67 c12 37 35 105 52 151 39 110 42 145 24 233 -9 40 -19 93 -22
118 -11 71 -40 179 -69 249 -14 36 -26 75 -26 88 0 14 -5 33 -10 44 -10 17
-14 15 -58 -30 -26 -26 -51 -55 -57 -65 -9 -15 -17 -15 -88 -3 -58 10 -110 11
-209 5 -121 -8 -134 -8 -145 8 -30 41 -11 64 50 64 65 0 211 32 239 52 55 39
208 64 235 37 7 -7 10 -2 10 18 0 15 3 42 8 60 l7 31 -67 7 c-36 4 -85 4 -108
0 -23 -4 -58 -7 -77 -7 -19 1 -49 -8 -68 -20 -21 -13 -68 -25 -134 -33 -124
-16 -250 -72 -295 -132 -32 -41 -76 -63 -114 -56 -36 7 -63 -21 -55 -59 6 -31
-11 -78 -28 -78 -28 1 -37 20 -40 86 -3 57 1 78 22 122 22 44 33 56 79 77 29
14 62 39 74 55 26 35 31 37 117 50 84 14 206 55 253 85 44 28 120 55 158 55
15 0 61 -11 101 -25 40 -14 83 -25 94 -25 36 -1 93 -26 133 -58 l39 -31 75 37
c102 51 103 59 35 289 -21 70 -36 143 -36 173 0 44 -3 52 -24 60 -22 8 -76 69
-113 126 -12 18 -14 17 -37 -11 -14 -16 -26 -38 -28 -49 -2 -12 -21 -30 -45
-44 l-43 -23 -87 39 c-199 89 -200 89 -318 53 -51 -15 -80 -30 -104 -55 -66
-69 -132 -83 -187 -41 -29 22 -33 32 -39 88 -10 92 -1 106 141 222 30 24 44
29 78 26 116 -8 228 1 253 21 15 12 6 36 -17 43 -10 3 -49 28 -86 55 -48 36
-76 50 -99 50 -18 0 -38 6 -44 14 -21 25 -65 27 -155 7 -88 -19 -151 -52 -161
-83 -3 -9 -12 -19 -20 -22 -7 -2 -28 -51 -45 -108 -17 -57 -37 -119 -45 -138
-8 -19 -21 -68 -29 -107 -18 -94 -63 -156 -156 -218 -66 -44 -123 -98 -132
-127 -4 -10 -11 -11 -36 -2 -20 8 -46 9 -79 3 -59 -11 -73 -7 -73 25 0 34 -48
68 -134 96 l-68 22 -22 -25 c-29 -36 -94 -67 -137 -67 -39 0 -52 -10 -64 -50
-10 -32 -83 -137 -100 -144 -14 -5 -97 20 -135 41 -14 8 -54 29 -90 47 -97 49
-108 57 -125 98 -14 37 -122 151 -203 215 -25 20 -45 48 -53 70 -6 21 -31 77
-55 125 -24 47 -49 107 -55 133 -7 29 -23 57 -42 73 -81 73 -97 95 -113 150
-22 77 -65 160 -113 218 -40 50 -48 58 -143 148 -45 42 -56 59 -62 94 -3 24
-17 65 -30 90 -32 63 -40 120 -26 173 22 81 7 254 -28 323 -16 33 -12 189 7
224 12 22 52 33 314 82 86 16 172 37 190 47 25 14 50 17 112 15 180 -7 281 0
400 28 65 16 408 28 460 17 22 -5 83 -6 135 -2 52 4 215 8 362 10 147 2 272 6
277 10 16 9 157 34 402 69 105 15 159 30 169 45 3 4 18 14 35 22 45 21 59 60
63 180 4 103 3 109 -27 170 -17 35 -58 100 -91 144 -80 105 -95 135 -114 228
-9 43 -31 111 -50 150 -60 127 -91 256 -84 343 3 34 8 40 53 63 116 60 304
213 357 288 44 65 69 154 62 222 -7 67 -29 102 -95 155 -26 21 -58 53 -70 70
-49 72 -134 111 -304 142 -87 15 -315 17 -545 3z m681 -5132 c-1 -12 -15 -9
-19 4 -3 6 1 10 8 8 6 -3 11 -8 11 -12z m-2135 -138 c11 -7 33 -33 48 -57 17
-28 51 -58 99 -88 40 -26 91 -62 115 -81 24 -20 63 -49 87 -67 24 -17 88 -64
142 -105 54 -41 114 -86 133 -100 70 -53 136 -89 185 -100 46 -10 94 -29 220
-86 28 -13 68 -26 89 -30 40 -7 119 -42 166 -75 14 -9 39 -20 55 -24 17 -4 46
-20 65 -35 20 -16 56 -39 80 -51 25 -13 51 -31 58 -41 7 -11 19 -19 26 -19 7
0 21 -9 32 -21 14 -16 15 -22 5 -28 -13 -9 -69 0 -111 16 -16 7 -51 7 -100 1
-52 -7 -91 -6 -127 2 -28 6 -75 11 -105 10 -94 -2 -220 21 -289 51 -36 16 -71
29 -77 29 -7 0 -26 14 -44 30 -17 17 -41 30 -53 30 -12 0 -42 10 -66 23 -24
12 -89 40 -144 61 -55 21 -130 51 -166 67 -36 16 -70 29 -75 29 -5 0 -40 25
-79 55 -103 80 -175 129 -221 153 -23 12 -54 37 -70 57 -16 19 -51 62 -79 94
-47 56 -131 170 -164 226 -22 36 -6 56 65 79 45 15 70 31 109 72 l50 52 60
-57 c33 -31 69 -64 81 -72z m2819 71 c19 -37 19 -84 0 -100 -20 -16 -35 -3
-39 34 -2 15 -14 38 -26 51 l-23 25 24 9 c38 15 48 13 64 -19z m-556 -216 c12
-15 21 -30 21 -35 0 -5 16 -42 35 -83 19 -41 35 -80 35 -86 0 -6 9 -28 20 -50
53 -104 -9 -109 -115 -9 -32 30 -49 38 -85 41 l-45 3 -8 59 c-11 76 11 139 57
167 42 26 61 24 85 -7z m449 -255 c-2 -6 -8 -10 -13 -10 -5 0 -11 4 -13 10 -2
6 4 11 13 11 9 0 15 -5 13 -11z"/>
<path d="M5641 7055 c-17 -19 -28 -41 -25 -49 11 -30 -90 -107 -184 -141 -29
-11 -51 -24 -49 -30 2 -6 37 -10 83 -10 73 0 83 3 135 35 127 79 159 102 159
115 0 12 -75 115 -84 115 -2 0 -18 -16 -35 -35z"/>
<path d="M5780 6901 c0 -5 5 -13 10 -16 6 -3 10 -2 10 4 0 5 -4 13 -10 16 -5
3 -10 2 -10 -4z"/>
<path d="M4980 6806 c-19 -7 -36 -20 -38 -28 -2 -11 -17 -16 -57 -16 -30 0
-57 3 -60 8 -5 9 -207 4 -265 -6 -45 -8 -91 -8 -215 -3 -94 4 -103 2 -145 -22
-31 -18 -65 -28 -111 -31 -85 -7 -107 -19 -183 -107 -88 -99 -136 -211 -136
-317 0 -70 1 -74 23 -74 28 0 75 31 70 46 -2 6 9 14 24 17 16 3 60 36 101 75
40 39 85 73 100 77 15 3 50 22 79 41 28 19 60 37 70 41 10 3 33 19 51 35 59
51 159 31 268 -52 75 -58 212 -130 246 -130 13 0 43 -9 67 -20 24 -11 55 -20
70 -20 14 0 40 -7 56 -16 54 -28 154 2 233 71 57 50 55 71 -10 118 -29 20 -72
50 -95 67 -45 31 -123 129 -123 154 0 19 49 29 106 20 34 -5 48 -3 55 7 15 25
10 39 -23 59 -38 23 -104 25 -158 6z"/>
<path d="M5665 6769 c-44 -23 -91 -51 -103 -64 l-24 -22 17 -64 c10 -35 22
-86 27 -113 5 -27 19 -67 31 -91 45 -86 56 -111 68 -158 8 -32 24 -59 50 -85
30 -29 40 -47 43 -78 2 -29 21 -66 70 -139 102 -153 104 -157 116 -208 6 -27
19 -65 29 -85 10 -21 24 -56 30 -79 12 -45 69 -103 101 -103 31 0 26 65 -19
214 -21 72 -44 156 -50 186 -41 190 -80 320 -139 460 -150 355 -153 363 -150
418 2 30 -1 52 -7 52 -5 0 -46 -19 -90 -41z m191 -491 c33 -40 56 -92 48 -111
-8 -23 -46 -28 -72 -11 -46 30 -80 122 -55 147 16 17 53 5 79 -25z"/>
<path d="M4225 6076 c-78 -19 -100 -29 -152 -71 -34 -27 -77 -54 -95 -61 -47
-15 -74 -74 -59 -123 16 -50 35 -70 119 -124 39 -26 72 -53 72 -61 0 -20 75
-84 107 -92 16 -4 37 -13 48 -20 32 -20 125 -44 169 -44 23 0 61 9 85 20 24
11 59 20 78 20 32 0 83 35 83 57 0 12 107 60 175 79 33 9 88 31 123 50 59 32
65 33 106 22 52 -14 70 -4 93 49 19 46 17 50 -24 64 -20 6 -56 27 -80 45 -25
19 -50 34 -57 34 -7 0 -30 14 -51 30 -21 17 -50 30 -64 30 -14 0 -64 14 -111
31 -47 16 -103 34 -125 38 -22 5 -67 15 -100 24 -105 27 -237 28 -340 3z m478
-186 c29 -55 18 -126 -23 -163 l-34 -30 -18 23 c-17 21 -23 65 -21 147 1 71
64 86 96 23z m-493 -41 c26 -57 31 -77 24 -98 -10 -28 -38 -37 -80 -27 -30 8
-84 65 -84 90 0 23 36 83 58 96 36 20 49 11 82 -61z"/>
<path d="M2208 5550 c-33 -37 -44 -64 -39 -94 1 -4 -5 -19 -14 -32 -16 -25
-20 -104 -6 -132 4 -9 31 -62 58 -117 28 -55 56 -116 62 -136 6 -20 22 -45 34
-56 32 -30 232 -143 252 -143 31 0 8 25 -57 63 -36 20 -82 56 -102 80 -20 23
-59 68 -86 99 -27 32 -52 70 -56 85 -3 16 -17 44 -30 63 -16 24 -28 63 -35
116 -10 73 -10 82 8 111 17 29 21 31 44 20 14 -8 25 -23 27 -39 4 -31 92 -118
119 -118 30 0 147 -85 197 -143 30 -36 49 -68 53 -92 3 -21 21 -60 40 -87 18
-28 33 -57 33 -65 0 -7 7 -28 16 -45 24 -46 25 -106 3 -122 -16 -11 -17 -20
-10 -65 5 -30 16 -60 27 -70 21 -20 123 -65 130 -58 3 2 5 67 5 142 1 121 3
142 20 165 18 24 19 28 4 70 -8 25 -28 72 -44 105 -16 33 -41 93 -56 133 -20
54 -31 72 -46 72 -26 0 -84 54 -99 92 -7 18 -40 61 -74 96 -78 81 -180 132
-276 139 l-65 5 -37 -42z"/>
</g>
</svg>
